<svg xmlns="http://www.w3.org/2000/svg" width="192" height="192" viewBox="0 0 192 192">
  <defs>
    <linearGradient id="g" x1="0" y1="0" x2="1" y2="1">
      <stop offset="0%" stop-color="#c67a2b"/>
      <stop offset="100%" stop-color="#8B4513"/>
    </linearGradient>
  </defs>
  <rect width="192" height="192" rx="32" fill="url(#g)"/>
  <g fill="#fff" fill-opacity="0.95" transform="translate(24,24)">
    <path d="M72 0c-8 0-14 6-16 14l-3 14H16c-9 0-16 7-16 16v64c0 9 7 16 16 16h120c9 0 16-7 16-16V44c0-9-7-16-16-16h-37l-3-14C94 6 88 0 80 0h-8zM24 64h24v48H24V64zm40 0h24v48H64V64zm40 0h24v48h-24V64z"/>
  </g>
</svg>
